<svg xmlns="http://www.w3.org/2000/svg"  viewBox="0 0 64 64" width="64px" height="64px"><linearGradient id="vwq1TpUm0sgNZ3afpdBXba" x1="32" x2="32" y1="5.94" y2="20.921" gradientUnits="userSpaceOnUse"><stop offset="0" stop-color="#6dc7ff"/><stop offset="1" stop-color="#e6abff"/></linearGradient><path fill="url(#vwq1TpUm0sgNZ3afpdBXba)" d="M33,6h-2v14c0,0.552,0.448,1,1,1h0c0.552,0,1-0.448,1-1V6z"/><linearGradient id="vwq1TpUm0sgNZ3afpdBXbb" x1="32" x2="32" y1="50.549" y2="57.135" gradientUnits="userSpaceOnUse"><stop offset="0" stop-color="#6dc7ff"/><stop offset="1" stop-color="#e6abff"/></linearGradient><path fill="url(#vwq1TpUm0sgNZ3afpdBXbb)" d="M18.45,48c0.28,3.798,7.51,11,13.55,11	s13.27-7.202,13.55-11C36.061,52.782,27.049,52.552,18.45,48z"/><linearGradient id="vwq1TpUm0sgNZ3afpdBXbc" x1="32" x2="32" y1="26.19" y2="50.721" gradientUnits="userSpaceOnUse"><stop offset="0" stop-color="#6dc7ff"/><stop offset="1" stop-color="#e6abff"/></linearGradient><path fill="url(#vwq1TpUm0sgNZ3afpdBXbc)" d="M15.584,23.405l0.693,2.499	c0.328,1.156,1.192,2.089,2.31,2.486l0.037,0.012l2.432,0.87l1.216,0.435l2.955,1.057c0.243,0.087,0.474,0.187,0.693,0.298	c1.885,0.97,3.186,2.884,3.356,5.085l1.204,15.541l0.024,0.211C31.027,51.975,31.526,52,32,52c0.474,0,0.973-0.025,1.496-0.099	l0.024-0.211l1.204-15.541c0.195-2.462,1.788-4.563,4.049-5.383l6.639-2.375c1.119-0.398,1.982-1.33,2.31-2.486l0.693-2.499	c-7.904,3.73-13.984,3.73-16.416,3.73c-1.204,0-3.307,0-6.08-0.46c-1.119-0.174-2.335-0.435-3.648-0.796	c-0.401-0.099-0.803-0.211-1.216-0.348c-0.778-0.236-1.593-0.51-2.432-0.833C17.651,24.325,16.63,23.903,15.584,23.405z"/><linearGradient id="vwq1TpUm0sgNZ3afpdBXbd" x1="32" x2="32" y1="4.522" y2="60.072" gradientUnits="userSpaceOnUse"><stop offset="0" stop-color="#1a6dff"/><stop offset="1" stop-color="#c822ff"/></linearGradient><path fill="url(#vwq1TpUm0sgNZ3afpdBXbd)" d="M54.917,22.967	c-0.218-1.319-1.009-2.488-2.188-3.217l-2.292-1.357c-1.649-7.52-8.211-13.159-15.846-13.376C34.418,5.001,34.231,5,34.043,5h-4.086	c-0.188,0-0.375,0.001-0.491,0.013c-7.689,0.221-14.254,5.861-15.904,13.38l-2.309,1.367c-1.161,0.719-1.952,1.888-2.165,3.175	c-0.071,0.358-0.1,0.687-0.088,0.998l0.201,6.312c0.056,1.276,0.796,2.423,1.958,3.003l1.005,0.467	c-0.18,3.967-0.214,7.565-0.083,10.281c0.016,0.312,0.077,0.633,0.182,0.955c0.238,0.729,0.734,1.37,1.414,1.816	c0.986,0.622,2.337,1.344,3.885,2.071C18.503,53.061,25.677,60,32,60c6.323,0,13.497-6.939,14.438-11.162	c1.549-0.728,2.902-1.451,3.891-2.074c0.944-0.604,1.539-1.641,1.591-2.772c0.131-2.703,0.097-6.285-0.081-10.234l1.029-0.523	c1.135-0.567,1.875-1.714,1.932-3.002l0.2-6.295C55.011,23.621,54.982,23.293,54.917,22.967z M35.895,50.471	c-0.22,0.05-0.443,0.102-0.655,0.144c-0.157,0.031-0.319,0.066-0.471,0.093c-0.493,0.087-0.969,0.158-1.416,0.201	c-0.838,0.121-1.822,0.126-2.754-0.005c-0.328-0.031-0.683-0.082-1.049-0.14c-0.082-0.013-0.163-0.026-0.247-0.041	c-0.366-0.064-0.746-0.138-1.145-0.227c-0.017-0.004-0.036-0.009-0.053-0.013c-0.391-11.927-5.524-20.493-13.569-22.7	c0.02-0.263,0.045-0.529,0.066-0.792c0.116-1.428,0.251-2.869,0.404-4.315c0.029-0.276,0.058-0.552,0.089-0.828	C20.541,24.494,28.169,25.5,32,25.5s11.459-1.006,16.904-3.651c0.031,0.277,0.06,0.553,0.089,0.829	c0.153,1.444,0.288,2.882,0.404,4.309c0.022,0.266,0.047,0.533,0.067,0.797C41.422,29.991,36.289,38.552,35.895,50.471z M29.948,7	c0.003,0,0.006,0,0.009,0h4.086c0.003,0,0.006,0,0.009,0l0.871,16.336C33.754,23.447,32.742,23.5,32,23.5s-1.754-0.053-2.923-0.164	L29.948,7z M48.644,19.728c-3.448,1.833-8.037,2.872-11.73,3.376L36.063,7.156C42.43,8.057,47.621,13.181,48.644,19.728z M27.937,7.161l-0.85,15.942c-3.693-0.504-8.283-1.542-11.73-3.376C16.377,13.197,21.546,8.083,27.937,7.161z M12.027,31.445	c-0.486-0.243-0.804-0.737-0.828-1.277L11,23.863c-0.006-0.159,0.011-0.335,0.057-0.57c0.124-0.75,0.579-1.418,1.232-1.822	l0.892-0.528c-0.289,2.529-0.533,5.062-0.71,7.538c-0.076,1.041-0.139,2.066-0.197,3.079L12.027,31.445z M14.164,44.33	c-0.05-0.153-0.079-0.301-0.086-0.435c-0.171-3.532-0.057-8.605,0.306-14.058c6.812,2.101,11.188,9.627,11.685,20.115	c-4.59-1.337-9.273-3.582-11.31-4.868C14.468,44.895,14.263,44.633,14.164,44.33z M32,58c-4.749,0-10.04-4.686-11.878-8.035	c2.174,0.897,4.534,1.723,6.757,2.284c1.311,0.331,2.499,0.549,3.483,0.642C30.876,52.964,31.412,53,32,53s1.124-0.036,1.59-0.104	c0.258-0.024,0.526-0.056,0.803-0.096c0.831-0.118,1.745-0.303,2.728-0.551c0,0,0,0,0.001,0c2.223-0.561,4.582-1.387,6.757-2.284	C42.04,53.314,36.749,58,32,58z M49.922,43.896c0,0.001,0,0.002,0,0.003c-0.022,0.491-0.267,0.922-0.666,1.177	c-2.051,1.294-6.735,3.54-11.325,4.877c0.497-10.488,4.873-18.014,11.685-20.115C49.979,35.29,50.093,40.363,49.922,43.896z M52.801,30.156c-0.024,0.552-0.342,1.046-0.834,1.292l-0.24,0.122c-0.058-1.017-0.122-2.044-0.197-3.089	c-0.098-1.367-0.214-2.751-0.347-4.142c-0.003-0.028-0.006-0.057-0.009-0.085c-0.106-1.101-0.228-2.207-0.354-3.311l0.875,0.518	c0.67,0.414,1.125,1.082,1.255,1.864c0.041,0.203,0.058,0.379,0.051,0.543L52.801,30.156z"/></svg>